<svg width="24" height="24" viewBox="0 0 24 24" fill="none" xmlns="http://www.w3.org/2000/svg">
<path d="M2.53125 0C1.85992 0 1.21609 0.266685 0.741386 0.741386C0.266685 1.21609 0 1.85992 0 2.53125V4.21875H3.375C3.59878 4.21875 3.81339 4.12986 3.97162 3.97162C4.12986 3.81339 4.21875 3.59878 4.21875 3.375V0H2.53125ZM5.90625 0V3.375C5.90625 3.59878 5.99514 3.81339 6.15338 3.97162C6.31161 4.12986 6.52622 4.21875 6.75 4.21875H16.875C17.0988 4.21875 17.3134 4.12986 17.4716 3.97162C17.6299 3.81339 17.7188 3.59878 17.7188 3.375V0H5.90625ZM19.4062 0V3.375C19.4062 3.59878 19.4951 3.81339 19.6534 3.97162C19.8116 4.12986 20.0262 4.21875 20.25 4.21875H23.625V2.53125C23.625 1.85992 23.3583 1.21609 22.8836 0.741386C22.4089 0.266685 21.7651 0 21.0938 0H19.4062ZM23.625 5.90625H13.5C13.2762 5.90625 13.0616 5.99514 12.9034 6.15338C12.7451 6.31161 12.6562 6.52622 12.6562 6.75V10.125C12.6562 10.3488 12.7451 10.5634 12.9034 10.7216C13.0616 10.8799 13.2762 10.9688 13.5 10.9688H23.625V5.90625ZM23.625 12.6562H20.25C20.0262 12.6562 19.8116 12.7451 19.6534 12.9034C19.4951 13.0616 19.4062 13.2762 19.4062 13.5V16.875C19.4062 17.0988 19.4951 17.3134 19.6534 17.4716C19.8116 17.6299 20.0262 17.7188 20.25 17.7188H23.625V12.6562ZM23.625 19.4062H13.5C13.2762 19.4062 13.0616 19.4951 12.9034 19.6534C12.7451 19.8116 12.6562 20.0262 12.6562 20.25V23.625H21.0938C21.7651 23.625 22.4089 23.3583 22.8836 22.8836C23.3583 22.4089 23.625 21.7651 23.625 21.0938V19.4062ZM10.9688 23.625V20.25C10.9688 20.0262 10.8799 19.8116 10.7216 19.6534C10.5634 19.4951 10.3488 19.4062 10.125 19.4062H0V21.0938C0 21.7651 0.266685 22.4089 0.741386 22.8836C1.21609 23.3583 1.85992 23.625 2.53125 23.625H10.9688ZM0 17.7188H3.375C3.59878 17.7188 3.81339 17.6299 3.97162 17.4716C4.12986 17.3134 4.21875 17.0988 4.21875 16.875V13.5C4.21875 13.2762 4.12986 13.0616 3.97162 12.9034C3.81339 12.7451 3.59878 12.6562 3.375 12.6562H0V17.7188ZM0 10.9688H10.125C10.3488 10.9688 10.5634 10.8799 10.7216 10.7216C10.8799 10.5634 10.9688 10.3488 10.9688 10.125V6.75C10.9688 6.52622 10.8799 6.31161 10.7216 6.15338C10.5634 5.99514 10.3488 5.90625 10.125 5.90625H0V10.9688ZM5.90625 13.5C5.90625 13.2762 5.99514 13.0616 6.15338 12.9034C6.31161 12.7451 6.52622 12.6562 6.75 12.6562H16.875C17.0988 12.6562 17.3134 12.7451 17.4716 12.9034C17.6299 13.0616 17.7188 13.2762 17.7188 13.5V16.875C17.7188 17.0988 17.6299 17.3134 17.4716 17.4716C17.3134 17.6299 17.0988 17.7188 16.875 17.7188H6.75C6.52622 17.7188 6.31161 17.6299 6.15338 17.4716C5.99514 17.3134 5.90625 17.0988 5.90625 16.875V13.5Z" fill="#3C3C3C"/>
</svg>
