<svg width="24" height="21" viewBox="0 0 24 21" fill="none" xmlns="http://www.w3.org/2000/svg">
<path d="M20.25 3.375H3.375V13.5H20.25V3.375Z" fill="#3C3C3C"/>
<path fill-rule="evenodd" clip-rule="evenodd" d="M2.10938 0C0.943875 0 0 0.945 0 2.10938V14.7656C0 15.93 0.945 16.875 2.10938 16.875H9.28125V18.5625H5.0625C4.83872 18.5625 4.62411 18.6514 4.46588 18.8096C4.30764 18.9679 4.21875 19.1825 4.21875 19.4062C4.21875 19.63 4.30764 19.8446 4.46588 20.0029C4.62411 20.1611 4.83872 20.25 5.0625 20.25H18.5625C18.7863 20.25 19.0009 20.1611 19.1591 20.0029C19.3174 19.8446 19.4062 19.63 19.4062 19.4062C19.4062 19.1825 19.3174 18.9679 19.1591 18.8096C19.0009 18.6514 18.7863 18.5625 18.5625 18.5625H14.3438V16.875H21.5156C22.68 16.875 23.625 15.93 23.625 14.7656V2.10938C23.625 0.943875 22.68 0 21.5156 0H2.10938ZM2.10938 15.1875H21.5156C21.6275 15.1875 21.7348 15.1431 21.8139 15.0639C21.8931 14.9848 21.9375 14.8775 21.9375 14.7656V2.10938C21.9375 1.99749 21.8931 1.89018 21.8139 1.81106C21.7348 1.73195 21.6275 1.6875 21.5156 1.6875H2.10938C1.99749 1.6875 1.89018 1.73195 1.81106 1.81106C1.73195 1.89018 1.6875 1.99749 1.6875 2.10938V14.7656C1.6875 14.9985 1.8765 15.1875 2.10938 15.1875Z" fill="#3C3C3C"/>
</svg>
