<svg width="44" height="35" viewBox="0 0 44 35" fill="none" xmlns="http://www.w3.org/2000/svg">
<path d="M39 0H4.33333C1.95 0 0.0216666 1.95 0.0216666 4.33333L0 30.3333C0 32.7167 1.95 34.6667 4.33333 34.6667H39C41.3833 34.6667 43.3333 32.7167 43.3333 30.3333V4.33333C43.3333 1.95 41.3833 0 39 0ZM38.1333 9.20833L22.815 18.785C22.1217 19.2183 21.2117 19.2183 20.5183 18.785L5.2 9.20833C4.98274 9.08637 4.79249 8.9216 4.64076 8.72398C4.48903 8.52637 4.37897 8.30002 4.31725 8.05864C4.25553 7.81726 4.24342 7.56586 4.28167 7.31966C4.31992 7.07347 4.40773 6.8376 4.53978 6.62632C4.67183 6.41504 4.84537 6.23275 5.04991 6.09049C5.25444 5.94823 5.48572 5.84894 5.72974 5.79865C5.97376 5.74835 6.22545 5.7481 6.46957 5.79789C6.71369 5.84768 6.94517 5.94649 7.15 6.08833L21.6667 15.1667L36.1833 6.08833C36.3882 5.94649 36.6196 5.84768 36.8638 5.79789C37.1079 5.7481 37.3596 5.74835 37.6036 5.79865C37.8476 5.84894 38.0789 5.94823 38.2834 6.09049C38.488 6.23275 38.6615 6.41504 38.7936 6.62632C38.9256 6.8376 39.0134 7.07347 39.0517 7.31966C39.0899 7.56586 39.0778 7.81726 39.0161 8.05864C38.9544 8.30002 38.8443 8.52637 38.6926 8.72398C38.5408 8.9216 38.3506 9.08637 38.1333 9.20833Z" fill="#3C3C3C"/>
</svg>
