<svg width="17" height="23" viewBox="0 0 17 23" fill="none" xmlns="http://www.w3.org/2000/svg">
<path d="M6.849 21.8396C6.408 21.3986 6.1875 20.8687 6.1875 20.25H10.6875C10.6875 20.8687 10.4674 21.3986 10.0271 21.8396C9.58688 22.2806 9.057 22.5007 8.4375 22.5C7.818 22.4993 7.2885 22.2791 6.849 21.8396ZM3.9375 19.125V16.875H12.9375V19.125H3.9375ZM4.21875 15.75C2.925 14.9812 1.89825 13.95 1.1385 12.6562C0.378751 11.3625 -0.000748891 9.95625 1.10947e-06 8.4375C1.10947e-06 6.09375 0.820501 4.10175 2.4615 2.4615C4.1025 0.821251 6.0945 0.000750514 8.4375 5.13698e-07C10.7805 -0.000749486 12.7729 0.819751 14.4146 2.4615C16.0564 4.10325 16.8765 6.09525 16.875 8.4375C16.875 9.95625 16.4955 11.3625 15.7365 12.6562C14.9775 13.95 13.9508 14.9812 12.6563 15.75H4.21875Z" fill="#3C3C3C"/>
</svg>
