<svg width="23" height="23" viewBox="0 0 23 23" fill="none" xmlns="http://www.w3.org/2000/svg">
<path d="M2.23988 2.23819C1.52976 2.94816 0.966454 3.79107 0.582132 4.71877C0.19781 5.64647 0 6.64079 0 7.64494C0 8.6491 0.19781 9.64342 0.582132 10.5711C0.966454 11.4988 1.52976 12.3417 2.23988 13.0517L5.12438 15.9351L5.68125 15.8282H5.68238L5.69813 15.8248L5.78138 15.8046C5.85863 15.7866 5.97676 15.7524 6.13576 15.7022C6.45301 15.6009 6.91988 15.4288 7.49701 15.1509C8.64901 14.5963 10.2398 13.6164 11.9284 11.9267C13.617 10.2381 14.5969 8.64732 15.1526 7.49532C15.4305 6.91932 15.6026 6.45132 15.7039 6.13407C15.7506 5.9899 15.7915 5.84391 15.8265 5.69644L15.8299 5.68069L15.9368 5.12269L13.0534 2.23932C12.3434 1.52937 11.5006 0.966202 10.573 0.58198C9.6454 0.197757 8.65121 0 7.64719 0C6.64317 0 5.64898 0.197757 4.72138 0.58198C3.79379 0.966202 2.95096 1.52937 2.24101 2.23932M17.3475 6.53232L17.3115 6.64819C17.1878 7.03407 16.9875 7.57519 16.6725 8.22769C16.0425 9.53494 14.9569 11.2854 13.122 13.1203C11.2871 14.9552 9.53663 16.0419 8.22938 16.6719C7.68161 16.938 7.11494 17.1632 6.53401 17.3458L9.44888 20.2596C10.1561 20.9814 10.9994 21.5558 11.9301 21.9497C12.8607 22.3436 13.8602 22.549 14.8707 22.5542C15.8813 22.5594 16.8828 22.3642 17.8175 21.9799C18.7521 21.5956 19.6012 21.0298 20.3159 20.3153C21.0305 19.6008 21.5963 18.7517 21.9807 17.8171C22.3651 16.8825 22.5604 15.881 22.5554 14.8704C22.5503 13.8599 22.3449 12.8604 21.9511 11.9297C21.5574 10.999 20.983 10.1556 20.2613 9.44832L17.3475 6.53232Z" fill="#3C3C3C"/>
</svg>
