<svg width="27" height="27" viewBox="0 0 27 27" fill="none" xmlns="http://www.w3.org/2000/svg">
<path d="M6.75 15.1875C6.75 14.52 6.55206 13.8675 6.18121 13.3125C5.81036 12.7574 5.28326 12.3249 4.66656 12.0694C4.04986 11.814 3.37126 11.7471 2.71657 11.8774C2.06189 12.0076 1.46052 12.329 0.988516 12.801C0.516514 13.273 0.195076 13.8744 0.0648512 14.5291C-0.0653739 15.1838 0.00146232 15.8624 0.256908 16.4791C0.512354 17.0958 0.944936 17.6229 1.49995 17.9937C2.05497 18.3646 2.70749 18.5625 3.375 18.5625V27H23.625V18.5625C24.2925 18.5625 24.945 18.3646 25.5 17.9937C26.0551 17.6229 26.4876 17.0958 26.7431 16.4791C26.9985 15.8624 27.0654 15.1838 26.9352 14.5291C26.8049 13.8744 26.4835 13.273 26.0115 12.801C25.5395 12.329 24.9381 12.0076 24.2834 11.8774C23.6287 11.7471 22.9501 11.814 22.3334 12.0694C21.7167 12.3249 21.1896 12.7574 20.8188 13.3125C20.4479 13.8675 20.25 14.52 20.25 15.1875V18.5625H6.75V15.1875Z" fill="#3C3C3C"/>
<path d="M9.28125 15.1874C9.28128 13.6268 8.66365 12.1296 7.5633 11.023C6.46295 9.91628 4.96933 9.29008 3.40875 9.28116C3.61616 6.74731 4.76921 4.38421 6.6388 2.66141C8.50839 0.938599 10.9577 -0.0178223 13.5 -0.0178223C16.0423 -0.0178223 18.4916 0.938599 20.3612 2.66141C22.2308 4.38421 23.3838 6.74731 23.5913 9.28116C22.0307 9.29008 20.5371 9.91628 19.4367 11.023C18.3364 12.1296 17.7187 13.6268 17.7188 15.1874V16.0312H9.28125V15.1874Z" fill="#3C3C3C"/>
</svg>
