<svg width="25" height="25" viewBox="0 0 25 25" fill="none" xmlns="http://www.w3.org/2000/svg">
<path d="M1.375 24.75C0.985421 24.75 0.659088 24.618 0.396005 24.354C0.132922 24.09 0.000921408 23.7637 4.74137e-06 23.375C-0.000911925 22.9863 0.131088 22.66 0.396005 22.396C0.660922 22.132 0.987255 22 1.375 22H2.75V13.75H1.375C0.985421 13.75 0.659088 13.618 0.396005 13.354C0.132922 13.09 0.000921408 12.7637 4.74137e-06 12.375C-0.000911925 11.9863 0.131088 11.66 0.396005 11.396C0.660922 11.132 0.987255 11 1.375 11H2.75V2.75H1.375C0.985421 2.75 0.659088 2.618 0.396005 2.354C0.132922 2.09 0.000921408 1.76367 4.74137e-06 1.375C-0.000911925 0.986333 0.131088 0.66 0.396005 0.396C0.660922 0.132 0.987255 0 1.375 0H23.375C23.7646 0 24.0914 0.132 24.3554 0.396C24.6194 0.66 24.7509 0.986333 24.75 1.375C24.7491 1.76367 24.6171 2.09046 24.354 2.35537C24.0909 2.62029 23.7646 2.75183 23.375 2.75H22V11H23.375C23.7646 11 24.0914 11.132 24.3554 11.396C24.6194 11.66 24.7509 11.9863 24.75 12.375C24.7491 12.7637 24.6171 13.0905 24.354 13.3554C24.0909 13.6203 23.7646 13.7518 23.375 13.75H22V22H23.375C23.7646 22 24.0914 22.132 24.3554 22.396C24.6194 22.66 24.7509 22.9863 24.75 23.375C24.7491 23.7637 24.6171 24.0905 24.354 24.3554C24.0909 24.6203 23.7646 24.7518 23.375 24.75H1.375ZM15.2969 16.6884C16.099 15.8991 16.5 14.9426 16.5 13.8188C16.5 12.925 16.2424 12.1573 15.7273 11.5156C15.2121 10.874 14.0947 9.55625 12.375 7.5625C10.6563 9.53333 9.5393 10.8455 9.02413 11.4991C8.50896 12.1527 8.25092 12.9259 8.25 13.8188C8.25 14.9417 8.65105 15.8987 9.45313 16.6897C10.2552 17.4808 11.2292 17.8759 12.375 17.875C13.5208 17.8741 14.4948 17.4776 15.2969 16.6884Z" fill="#3C3C3C"/>
</svg>
