<svg width="5" height="12" viewBox="0 0 5 12" fill="none" xmlns="http://www.w3.org/2000/svg">
<path d="M4.52929 0.0821486C4.65258 0.144856 4.75613 0.240439 4.82849 0.358329C4.90085 0.47622 4.93919 0.611824 4.93929 0.750149V10.7501C4.93929 10.9491 4.86027 11.1398 4.71962 11.2805C4.57897 11.4211 4.3882 11.5001 4.18929 11.5001C3.99037 11.5001 3.79961 11.4211 3.65896 11.2805C3.5183 11.1398 3.43929 10.9491 3.43929 10.7501V2.22315L1.19129 3.85715C1.11157 3.91506 1.02124 3.95671 0.925429 3.97971C0.829622 4.00271 0.730223 4.00661 0.632907 3.9912C0.535592 3.97578 0.442265 3.94135 0.358256 3.88987C0.274247 3.83839 0.2012 3.77086 0.143287 3.69115C0.0853741 3.61144 0.0437285 3.5211 0.0207285 3.42529C-0.00227148 3.32948 -0.00617589 3.23008 0.00923864 3.13277C0.0246532 3.03545 0.0590852 2.94213 0.110567 2.85812C0.16205 2.77411 0.229574 2.70106 0.309287 2.64315L3.74629 0.143149C3.85831 0.0617975 3.99065 0.0130382 4.12868 0.00227175C4.2667 -0.00849471 4.40601 0.0191515 4.52929 0.0821486Z" fill="white"/>
</svg>
