<svg width="24" height="24" viewBox="0 0 24 24" fill="none" xmlns="http://www.w3.org/2000/svg">
<path fill-rule="evenodd" clip-rule="evenodd" d="M2.8275 0.765255C3.08997 0.503188 3.40513 0.299893 3.7521 0.16884C4.09907 0.037788 4.46994 -0.0180285 4.84011 0.00508982C5.21029 0.0282081 5.57133 0.129733 5.8993 0.302938C6.22727 0.476142 6.51469 0.71707 6.7425 1.00976L9.43501 4.46876C9.92851 5.10326 10.1025 5.92976 9.90751 6.70976L9.087 9.99476C9.04488 10.1649 9.04732 10.3431 9.09409 10.512C9.14085 10.6809 9.23037 10.835 9.354 10.9593L13.0395 14.6448C13.1639 14.7686 13.3182 14.8583 13.4875 14.9051C13.6567 14.9519 13.8351 14.9542 14.0055 14.9118L17.289 14.0913C17.674 13.9956 18.0756 13.9884 18.4638 14.0702C18.8519 14.1521 19.2164 14.3208 19.53 14.5638L22.989 17.2548C24.2325 18.2223 24.3465 20.0598 23.2335 21.1713L21.6825 22.7223C20.5725 23.8323 18.9135 24.3198 17.367 23.7753C13.408 22.3841 9.81381 20.1179 6.852 17.1453C3.87956 14.1839 1.61333 10.5902 0.222004 6.63176C-0.320995 5.08676 0.166505 3.42626 1.2765 2.31626L2.8275 0.765255Z" fill="white"/>
</svg>
