<svg width="25" height="15" viewBox="0 0 25 15" fill="none" xmlns="http://www.w3.org/2000/svg">
<path d="M23.625 4.05005H22.275C21.9022 4.05005 21.6 4.35226 21.6 4.72505V10.125C21.6 10.4978 21.9022 10.8 22.275 10.8H23.625C23.9978 10.8 24.3 10.4978 24.3 10.125V4.72505C24.3 4.35226 23.9978 4.05005 23.625 4.05005Z" fill="#3C3C3C"/>
<path d="M4.04999 4.05005H8.09999V10.8H4.04999V4.05005ZM8.77499 4.05005H12.825V10.8H8.77499V4.05005ZM13.5 4.05005H17.55V10.8H13.5V4.05005Z" fill="#3C3C3C"/>
<path fill-rule="evenodd" clip-rule="evenodd" d="M17.55 0H4.05C2.97587 0 1.94574 0.426695 1.18622 1.18622C0.426695 1.94574 0 2.97587 0 4.05V10.8C0 11.8741 0.426695 12.9043 1.18622 13.6638C1.94574 14.4233 2.97587 14.85 4.05 14.85H17.55C18.6241 14.85 19.6543 14.4233 20.4138 13.6638C21.1733 12.9043 21.6 11.8741 21.6 10.8V4.05C21.6 2.97587 21.1733 1.94574 20.4138 1.18622C19.6543 0.426695 18.6241 0 17.55 0ZM2.7 4.05C2.7 3.69196 2.84223 3.34858 3.09541 3.09541C3.34858 2.84223 3.69196 2.7 4.05 2.7H17.55C17.908 2.7 18.2514 2.84223 18.5046 3.09541C18.7578 3.34858 18.9 3.69196 18.9 4.05V10.8C18.9 11.158 18.7578 11.5014 18.5046 11.7546C18.2514 12.0078 17.908 12.15 17.55 12.15H4.05C3.69196 12.15 3.34858 12.0078 3.09541 11.7546C2.84223 11.5014 2.7 11.158 2.7 10.8V4.05Z" fill="#3C3C3C"/>
</svg>
