<svg width="20" height="27" viewBox="0 0 20 27" fill="none" xmlns="http://www.w3.org/2000/svg">
<path d="M14.4 0C17.388 0 19.8 6.3 19.8 13.5C19.8 20.7 17.1 27 14.4 27C11.7 27 9 20.7 9 13.5C9 6.3 11.7 0 14.4 0ZM14.4 3.6C12.6 3.6 11.7 8.1 11.7 13.5C11.7 18.9 12.6 23.4 14.4 23.4C16.2 23.4 17.1 18 17.1 13.5C17.1 9 16.2 3.6 14.4 3.6ZM14.4 4.05C15.75 4.05 16.65 9 16.65 13.5C16.65 18 15.75 22.95 14.4 22.95C13.5 22.95 13.05 21.6 13.05 21.15C14.4 18.9 14.4 14.4 14.4 13.5C14.4 12.6 14.4 8.1 13.05 5.85C13.05 5.4 13.5 4.05 14.4 4.05ZM12.6 0H5.4C2.7 0 0 6.3 0 13.5C0 20.7 2.7 27 5.4 27H12.6C9.9 25.2 8.1 19.8 8.1 13.5C8.1 7.2 9.9 1.8 12.6 0Z" fill="#3C3C3C"/>
</svg>
