<svg width="23" height="23" viewBox="0 0 23 23" fill="none" xmlns="http://www.w3.org/2000/svg">
<path d="M22.3988 13.905L19.5863 18.7763C19.035 19.7438 18.0112 20.25 16.9762 20.1825H14.7262V22.4325L11.9137 17.37L14.7262 12.3075V14.5575H17.8988L15.4013 10.2262L20.2725 7.41375L22.2975 10.9238C22.8825 11.79 22.9613 12.9488 22.3988 13.905ZM8.2125 0H13.8375C14.94 0 15.8963 0.64125 16.3575 1.56375L17.4825 3.52125L19.4288 2.39625L16.4588 7.3575L10.665 7.45875L12.6112 6.33375L11.025 3.5775L8.53875 7.90875L3.65625 5.09625L5.68125 1.58625C6.1425 0.6525 7.09875 0 8.2125 0ZM3.5325 18.7875L0.72 13.9163C0.16875 12.96 0.2475 11.8125 0.82125 10.9462L1.94625 9L0 7.875L5.7825 7.965L8.76375 12.9375L6.8175 11.8125L5.23125 14.5575H10.2262V20.1825H6.17625C5.64919 20.2206 5.12201 20.1101 4.65465 19.8635C4.18728 19.6169 3.7985 19.2441 3.5325 18.7875Z" fill="#3C3C3C"/>
</svg>
