<svg width="22" height="22" viewBox="0 0 22 22" fill="none" xmlns="http://www.w3.org/2000/svg">
<path d="M7.47322 0C7.02566 0 6.59644 0.17779 6.27997 0.494257C5.9635 0.810725 5.78571 1.23995 5.78571 1.6875V5.78764H1.6875C1.23995 5.78764 0.810725 5.96543 0.494257 6.2819C0.17779 6.59837 0 7.02759 0 7.47514V13.743C0 14.6745 0.756 15.4305 1.6875 15.4305H5.78571V19.5297C5.78571 20.4621 6.54171 21.2172 7.47322 21.2172H13.7411C14.1886 21.2172 14.6178 21.0394 14.9343 20.7229C15.2508 20.4065 15.4286 19.9772 15.4286 19.5297V15.4305H19.5268C19.9743 15.4305 20.4036 15.2527 20.72 14.9362C21.0365 14.6198 21.2143 14.1906 21.2143 13.743V7.47514C21.2143 7.02759 21.0365 6.59837 20.72 6.2819C20.4036 5.96543 19.9743 5.78764 19.5268 5.78764H15.4286V1.6875C15.4286 1.23995 15.2508 0.810725 14.9343 0.494257C14.6178 0.17779 14.1886 0 13.7411 0H7.47322Z" fill="#3C3C3C"/>
</svg>
