<svg width="44" height="44" viewBox="0 0 44 44" fill="none" xmlns="http://www.w3.org/2000/svg">
<path d="M43.3333 21.6667C43.3333 18.8214 42.7729 16.0039 41.6841 13.3752C40.5952 10.7465 38.9992 8.35795 36.9873 6.34602C34.9754 4.33408 32.5869 2.73813 29.9581 1.64928C27.3294 0.560425 24.512 0 21.6667 0V4.33333C25.0947 4.33325 28.4458 5.34967 31.2963 7.25407C34.1467 9.15846 36.3684 11.8653 37.6805 15.0323C38.5518 17.1357 39.0001 19.39 39 21.6667H43.3333ZM0 17.3333V6.5C0 5.92536 0.228273 5.37426 0.634602 4.96794C1.04093 4.56161 1.59203 4.33333 2.16667 4.33333H13C13.5746 4.33333 14.1257 4.56161 14.5321 4.96794C14.9384 5.37426 15.1667 5.92536 15.1667 6.5V15.1667C15.1667 15.7413 14.9384 16.2924 14.5321 16.6987C14.1257 17.1051 13.5746 17.3333 13 17.3333H8.66667C8.66667 21.9304 10.4929 26.3392 13.7435 29.5898C16.9941 32.8405 21.4029 34.6667 26 34.6667V30.3333C26 29.7587 26.2283 29.2076 26.6346 28.8013C27.0409 28.3949 27.592 28.1667 28.1667 28.1667H36.8333C37.408 28.1667 37.9591 28.3949 38.3654 28.8013C38.7717 29.2076 39 29.7587 39 30.3333V41.1667C39 41.7413 38.7717 42.2924 38.3654 42.6987C37.9591 43.1051 37.408 43.3333 36.8333 43.3333H26C11.6415 43.3333 0 31.6918 0 17.3333Z" fill="#3C3C3C"/>
<path d="M33.6766 16.692C34.3301 18.2691 34.6665 19.9595 34.6667 21.6667H30.7668C30.7668 19.2532 29.808 16.9386 28.1014 15.232C26.3948 13.5254 24.0802 12.5667 21.6667 12.5667V8.66669C24.2378 8.66682 26.7511 9.42935 28.8889 10.8578C31.0266 12.2863 32.6927 14.3166 33.6766 16.692Z" fill="#3C3C3C"/>
</svg>
