<svg width="17" height="23" viewBox="0 0 17 23" fill="none" xmlns="http://www.w3.org/2000/svg">
<path d="M8.1 22.275C3.62812 22.275 0 18.6469 0 14.175C0 10.3275 5.49281 2.61141 7.02844 0.527344C7.27734 0.189844 7.66969 0 8.09156 0H8.10844C8.53031 0 8.92266 0.189844 9.17156 0.527344C10.7072 2.61141 16.2 10.3275 16.2 14.175C16.2 18.6469 12.5719 22.275 8.1 22.275ZM4.725 13.8375C4.725 13.2764 4.27359 12.825 3.7125 12.825C3.15141 12.825 2.7 13.2764 2.7 13.8375C2.7 17.0058 5.26922 19.575 8.4375 19.575C8.99859 19.575 9.45 19.1236 9.45 18.5625C9.45 18.0014 8.99859 17.55 8.4375 17.55C6.38719 17.55 4.725 15.8878 4.725 13.8375Z" fill="#3C3C3C"/>
</svg>
