<svg width="8" height="12" viewBox="0 0 8 12" fill="none" xmlns="http://www.w3.org/2000/svg">
<path d="M2.15308 2.038C1.77908 2.374 1.50008 2.898 1.50008 3.671C1.50008 3.86991 1.42107 4.06068 1.28041 4.20133C1.13976 4.34198 0.948997 4.421 0.750085 4.421C0.551172 4.421 0.360407 4.34198 0.219755 4.20133C0.0791025 4.06068 8.44913e-05 3.86991 8.44913e-05 3.671C8.44913e-05 2.497 0.442084 1.56 1.15008 0.923C1.84408 0.297 2.75108 0 3.63508 0C4.51908 0 5.42508 0.297 6.12008 0.923C6.82708 1.56 7.27008 2.497 7.27008 3.671C7.27008 5.454 6.13808 7.009 4.91708 8.24C4.38196 8.77119 3.81989 9.27452 3.23308 9.748C4.44808 9.689 5.93608 9.711 7.18208 10.022C7.37516 10.0703 7.54116 10.1933 7.64355 10.3639C7.74595 10.5346 7.77635 10.7389 7.72808 10.932C7.67981 11.1251 7.55682 11.2911 7.38617 11.3935C7.21551 11.4959 7.01116 11.5263 6.81808 11.478C5.68408 11.194 4.21608 11.188 2.98408 11.264C2.28999 11.3085 1.59806 11.3818 0.910084 11.484L0.881084 11.488L0.874084 11.49C0.710347 11.5175 0.542125 11.4898 0.395783 11.4114C0.249441 11.333 0.133254 11.2083 0.0654322 11.0567C-0.00238936 10.9052 -0.0180108 10.7354 0.0210157 10.574C0.0600423 10.4127 0.151511 10.2688 0.281085 10.165C0.531085 9.964 0.802084 9.754 1.08408 9.535C1.97408 8.845 2.97708 8.065 3.85208 7.183C5.01608 6.01 5.76908 4.827 5.76908 3.671C5.76908 2.897 5.49008 2.374 5.11608 2.038C4.72908 1.689 4.19408 1.5 3.63508 1.5C3.07508 1.5 2.54008 1.69 2.15308 2.038Z" fill="white"/>
</svg>
