<svg width="44" height="44" viewBox="0 0 44 44" fill="none" xmlns="http://www.w3.org/2000/svg">
<path d="M21.6667 0C33.6332 0 43.3334 9.70017 43.3334 21.6667C43.3334 33.6332 33.6332 43.3333 21.6667 43.3333C17.8377 43.3399 14.076 42.3266 10.7684 40.3975L0.00870015 43.3333L2.93803 32.5693C1.00744 29.2607 -0.00667686 25.4974 3.30821e-05 21.6667C3.30821e-05 9.70017 9.7002 0 21.6667 0ZM14.2827 11.4833L13.8494 11.5007C13.5692 11.52 13.2955 11.5936 13.0434 11.7173C12.8084 11.8506 12.5939 12.017 12.4064 12.2113C12.1464 12.4562 11.999 12.6685 11.8409 12.8743C11.0395 13.9163 10.608 15.1955 10.6145 16.51C10.6189 17.5717 10.8962 18.6052 11.3295 19.5715C12.2157 21.5258 13.6739 23.595 15.5979 25.5125C16.0615 25.974 16.5165 26.4377 17.0062 26.8688C19.397 28.9735 22.2458 30.4914 25.3262 31.3018L26.5569 31.4903C26.9577 31.512 27.3585 31.4817 27.7615 31.4622C28.3924 31.4289 29.0084 31.2581 29.5664 30.9617C29.8499 30.8151 30.1267 30.656 30.3962 30.485C30.3962 30.485 30.4879 30.4229 30.667 30.29C30.9595 30.0733 31.1394 29.9195 31.382 29.666C31.564 29.4782 31.7157 29.2601 31.837 29.0117C32.006 28.6585 32.175 27.9847 32.2444 27.4235C32.2964 26.9945 32.2812 26.7605 32.2747 26.6153C32.266 26.3835 32.0732 26.143 31.863 26.0412L30.602 25.4757C30.602 25.4757 28.717 24.6545 27.5644 24.1302C27.4437 24.0776 27.3145 24.0475 27.183 24.0413C27.0348 24.0258 26.8849 24.0424 26.7436 24.0898C26.6023 24.1373 26.4729 24.2146 26.364 24.3165C26.3532 24.3122 26.208 24.4357 24.6415 26.3337C24.5516 26.4545 24.4278 26.5458 24.2858 26.596C24.1438 26.6461 23.99 26.6529 23.8442 26.6153C23.703 26.5777 23.5647 26.5299 23.4304 26.4723C23.1617 26.3597 23.0685 26.3163 22.8844 26.2383C21.6404 25.6965 20.489 24.9632 19.4719 24.0652C19.1989 23.8268 18.9454 23.5668 18.6854 23.3155C17.833 22.4991 17.0902 21.5756 16.4754 20.5682L16.3475 20.3623C16.2571 20.2232 16.183 20.0742 16.1265 19.9182C16.0442 19.5997 16.2587 19.344 16.2587 19.344C16.2587 19.344 16.7852 18.7677 17.03 18.4557C17.2684 18.1523 17.4699 17.8577 17.5999 17.6475C17.8555 17.2358 17.9357 16.8133 17.8014 16.4862C17.1947 15.0042 16.5678 13.5301 15.9207 12.064C15.7929 11.7737 15.4137 11.5657 15.0692 11.5245C14.9522 11.5101 14.8352 11.4985 14.7182 11.4898C14.4273 11.4731 14.1356 11.476 13.845 11.4985L14.2827 11.4833Z" fill="#3C3C3C"/>
</svg>
